<svg width="512" height="512" xmlns="http://www.w3.org/2000/svg" xmlns:svg="http://www.w3.org/2000/svg" version="1.1"
    xml:space="preserve">
    <g class="layer">
        <title>Layer 1</title>
        <rect fill="#000000" height="150" id="svg_2" width="71.11" x="405.33" y="361.07" />
        <rect fill="#e0e0e0" height="137" id="svg_3" stroke="#cecece" width="71.11" x="405.33" y="251.07" />
        <rect fill="#e2c351" height="128.53" id="svg_4" width="71.11" x="405.33" y="123.07" />
        <rect fill="#171b68" height="121.87" id="svg_5" width="71.11" x="405.33" y="0.87" />
        <rect fill="#ACABB1" height="512.33" id="svg_7" transform="matrix(1 0 0 1 0 0)" width="369.78" x="78.22"
            y="0" />
        <rect fill="#818085" height="511.33" id="svg_8" transform="matrix(1 0 0 1 0 0)" width="199.11" x="64" y="0" />
        <rect height="512.33" id="svg_9" transform="matrix(1 0 0 1 0 0)" width="42.67" x="35.56" y="0" />
        <g id="svg_10" transform="matrix(1 0 0 1 0 0)">
            <path
                d="m130.62,220.03l0,-63.5l27.37,0c3.1,0 5.96,0.64 8.58,1.93c2.62,1.28 4.88,2.95 6.75,5.01c1.88,2.05 3.36,4.41 4.43,7.06c1.07,2.66 1.61,5.32 1.61,8c0,2.81 -0.51,5.54 -1.52,8.19c-1.02,2.65 -2.43,5.01 -4.25,7.06c-1.82,2.06 -4.02,3.7 -6.62,4.92c-2.59,1.22 -5.44,1.83 -8.54,1.83l-10.37,0l0,19.5l-17.44,0l0,0zm17.44,-34.7l9.21,0c1.07,0 2.07,-0.49 3,-1.48c0.92,-0.98 1.38,-2.75 1.38,-5.32c0,-2.62 -0.53,-4.41 -1.61,-5.36s-2.14,-1.43 -3.22,-1.43l-8.76,0l0,13.59z"
                fill="#FFFFFF" id="svg_11" />
            <path
                d="m216.29,220.56c-4.82,0 -9.21,-0.92 -13.14,-2.77c-3.94,-1.84 -7.31,-4.27 -10.11,-7.29c-2.8,-3 -4.98,-6.45 -6.53,-10.33c-1.55,-3.87 -2.32,-7.86 -2.32,-11.98c0,-4.17 0.8,-8.2 2.41,-12.07c1.61,-3.88 3.86,-7.29 6.76,-10.24c2.89,-2.95 6.31,-5.31 10.28,-7.07c3.96,-1.76 8.3,-2.64 13.01,-2.64c4.83,0 9.21,0.93 13.15,2.78c3.93,1.85 7.3,4.29 10.1,7.33c2.8,3.04 4.96,6.5 6.49,10.37c1.52,3.88 2.28,7.84 2.28,11.9c0,4.17 -0.81,8.18 -2.42,12.03c-1.61,3.84 -3.84,7.24 -6.7,10.19c-2.87,2.95 -6.28,5.32 -10.24,7.11c-3.97,1.79 -8.31,2.68 -13.02,2.68zm-14.4,-32.19c0,2.15 0.3,4.22 0.9,6.22c0.59,1.99 1.49,3.77 2.68,5.32c1.19,1.55 2.7,2.8 4.52,3.75c1.82,0.96 3.98,1.44 6.48,1.44s4.68,-0.5 6.53,-1.48c1.85,-0.98 3.35,-2.26 4.52,-3.84c1.16,-1.58 2.02,-3.39 2.59,-5.42c0.57,-2.02 0.85,-4.08 0.85,-6.17c0,-2.14 -0.3,-4.21 -0.89,-6.21c-0.6,-2 -1.51,-3.76 -2.73,-5.28c-1.23,-1.52 -2.75,-2.74 -4.56,-3.66c-1.82,-0.93 -3.95,-1.39 -6.4,-1.39c-2.5,0 -4.66,0.48 -6.48,1.43c-1.82,0.95 -3.33,2.22 -4.52,3.8c-1.19,1.58 -2.07,3.37 -2.64,5.37c-0.56,1.99 -0.85,4.03 -0.85,6.12z"
                fill="#FFFFFF" id="svg_12" />
            <path
                d="m257.43,220.03l0,-63.5l29.15,0c3.1,0 5.97,0.64 8.59,1.93c2.62,1.28 4.87,2.95 6.75,5.01c1.88,2.05 3.35,4.41 4.43,7.06c1.07,2.66 1.61,5.32 1.61,8c0,3.7 -0.81,7.15 -2.42,10.34c-1.61,3.19 -3.84,5.79 -6.7,7.82l13.41,23.34l-19.67,0l-11.18,-19.5l-6.53,0l0,19.5l-17.44,0l0,0zm17.44,-34.7l11,0c1.07,0 2.07,-0.6 2.99,-1.79c0.93,-1.19 1.39,-2.86 1.39,-5.01c0,-2.2 -0.53,-3.89 -1.61,-5.05c-1.07,-1.16 -2.14,-1.74 -3.22,-1.74l-10.55,0l0,13.59l0,0z"
                fill="#FFFFFF" id="svg_13" />
            <path d="m367.7,171.74l-18.25,0l0,48.29l-17.44,0l0,-48.29l-18.33,0l0,-15.21l54.02,0l0,15.21l0,0z"
                fill="#FFFFFF" id="svg_14" />
            <path
                d="m130.62,298.4l0,-63.5l43.55,0l0,15.21l-26.11,0l0,10.55l21.28,0l0,14.13l-21.28,0l0,23.61l-17.44,0l0,0z"
                fill="#FFFFFF" id="svg_15" />
            <path
                d="m210.12,298.94c-4.83,0 -9.21,-0.93 -13.14,-2.78c-3.94,-1.84 -7.31,-4.27 -10.11,-7.29c-2.8,-3 -4.98,-6.45 -6.53,-10.33c-1.55,-3.87 -2.32,-7.86 -2.32,-11.98c0,-4.17 0.8,-8.2 2.41,-12.07c1.61,-3.88 3.86,-7.29 6.75,-10.24c2.89,-2.95 6.32,-5.31 10.29,-7.07c3.96,-1.76 8.3,-2.64 13.01,-2.64c4.83,0 9.21,0.93 13.15,2.78c3.93,1.85 7.3,4.29 10.1,7.33c2.8,3.04 4.96,6.5 6.49,10.37c1.51,3.88 2.28,7.84 2.28,11.9c0,4.17 -0.81,8.18 -2.42,12.03c-1.61,3.84 -3.84,7.24 -6.71,10.19c-2.86,2.95 -6.27,5.32 -10.24,7.11c-3.96,1.79 -8.3,2.69 -13.01,2.69zm-14.4,-32.2c0,2.15 0.3,4.22 0.9,6.22c0.59,1.99 1.49,3.77 2.68,5.32c1.2,1.55 2.7,2.8 4.52,3.75c1.82,0.96 3.98,1.44 6.48,1.44c2.51,0 4.68,-0.5 6.53,-1.48c1.85,-0.98 3.35,-2.26 4.52,-3.84c1.16,-1.58 2.02,-3.39 2.59,-5.42c0.57,-2.02 0.85,-4.08 0.85,-6.17c0,-2.14 -0.3,-4.21 -0.89,-6.21c-0.6,-2 -1.51,-3.76 -2.73,-5.28c-1.22,-1.52 -2.74,-2.74 -4.56,-3.66c-1.82,-0.93 -3.95,-1.39 -6.4,-1.39c-2.5,0 -4.66,0.48 -6.48,1.43c-1.82,0.95 -3.33,2.22 -4.52,3.8c-1.19,1.58 -2.07,3.37 -2.64,5.37c-0.56,1.99 -0.85,4.03 -0.85,6.12z"
                fill="#FFFFFF" id="svg_16" />
            <path d="m251.26,298.4l0,-63.5l17.44,0l0,48.3l28.8,0l0,15.2l-46.24,0z" fill="#FFFFFF" id="svg_17" />
            <path d="m304.92,298.4l0,-63.5l17.44,0l0,63.5l-17.44,0z" fill="#FFFFFF" id="svg_18" />
            <path
                d="m363.23,298.94c-4.83,0 -9.22,-0.93 -13.15,-2.78c-3.94,-1.84 -7.31,-4.27 -10.11,-7.29c-2.8,-3 -4.97,-6.45 -6.52,-10.33c-1.56,-3.87 -2.33,-7.86 -2.33,-11.98c0,-4.17 0.8,-8.2 2.41,-12.07c1.61,-3.88 3.86,-7.29 6.76,-10.24c2.89,-2.95 6.32,-5.31 10.28,-7.07c3.97,-1.76 8.3,-2.64 13.01,-2.64c4.83,0 9.21,0.93 13.15,2.78c3.94,1.85 7.3,4.29 10.1,7.33c2.81,3.04 4.97,6.5 6.49,10.37c1.52,3.88 2.28,7.84 2.28,11.9c0,4.17 -0.81,8.18 -2.42,12.03c-1.61,3.84 -3.84,7.24 -6.7,10.19c-2.87,2.95 -6.28,5.32 -10.24,7.11c-3.97,1.79 -8.3,2.69 -13.01,2.69zm-14.4,-32.2c0,2.15 0.3,4.22 0.89,6.22c0.6,1.99 1.49,3.77 2.68,5.32c1.2,1.55 2.7,2.8 4.52,3.75c1.82,0.96 3.98,1.44 6.49,1.44c2.5,0 4.68,-0.5 6.52,-1.48c1.85,-0.98 3.36,-2.26 4.52,-3.84c1.16,-1.58 2.03,-3.39 2.59,-5.42c0.57,-2.02 0.85,-4.08 0.85,-6.17c0,-2.14 -0.3,-4.21 -0.89,-6.21c-0.6,-2 -1.51,-3.76 -2.73,-5.28c-1.22,-1.52 -2.74,-2.74 -4.56,-3.66c-1.82,-0.93 -3.95,-1.39 -6.39,-1.39c-2.51,0 -4.67,0.48 -6.49,1.43c-1.82,0.95 -3.32,2.22 -4.51,3.8c-1.2,1.58 -2.08,3.37 -2.64,5.37c-0.57,1.99 -0.85,4.03 -0.85,6.12z"
                fill="#FFFFFF" id="svg_19" />
        </g>
    </g>
</svg>